<mxfile host="Electron" modified="2024-04-03T11:03:54.505Z" agent="Mozilla/5.0 (Windows NT 10.0; Win64; x64) AppleWebKit/537.36 (KHTML, like Gecko) draw.io/21.6.8 Chrome/114.0.5735.289 Electron/25.5.0 Safari/537.36" etag="ceQfXLLcdnn9LSRhyXV9" version="21.6.8" type="device">
  <diagram name="Страница — 1" id="t1PJkFN0TGM5wxeXvpXd">
    <mxGraphModel dx="1182" dy="1852" grid="1" gridSize="10" guides="1" tooltips="1" connect="1" arrows="1" fold="1" page="1" pageScale="1" pageWidth="827" pageHeight="1169" math="0" shadow="0">
      <root>
        <mxCell id="0" />
        <mxCell id="1" parent="0" />
        <mxCell id="3JHjnSQ0O0BwTpirnNTk-1" value="Начало" style="ellipse;whiteSpace=wrap;html=1;fillColor=#f8cecc;strokeColor=#b85450;" parent="1" vertex="1">
          <mxGeometry x="420" y="-110" width="80" height="30" as="geometry" />
        </mxCell>
        <mxCell id="3JHjnSQ0O0BwTpirnNTk-2" value="Конец" style="ellipse;whiteSpace=wrap;html=1;fillColor=#f8cecc;strokeColor=#b85450;" parent="1" vertex="1">
          <mxGeometry x="420" y="460" width="80" height="30" as="geometry" />
        </mxCell>
        <mxCell id="3JHjnSQ0O0BwTpirnNTk-11" value="Подсчет времени выполнения каждой заявки по началу и окончанию работы (окончание работы - начало работы" style="rounded=0;whiteSpace=wrap;html=1;fillColor=#dae8fc;strokeColor=#6c8ebf;" parent="1" vertex="1">
          <mxGeometry x="347.5" y="90" width="225" height="45" as="geometry" />
        </mxCell>
        <mxCell id="3JHjnSQ0O0BwTpirnNTk-13" value="Вывод данных начала работы и конца" style="shape=parallelogram;perimeter=parallelogramPerimeter;whiteSpace=wrap;html=1;fixedSize=1;fillColor=#ffe6cc;strokeColor=#d79b00;" parent="1" vertex="1">
          <mxGeometry x="375" y="-60" width="170" height="45" as="geometry" />
        </mxCell>
        <mxCell id="3JHjnSQ0O0BwTpirnNTk-14" value="Сумма всего времени выполнения каждой заявки" style="rounded=0;whiteSpace=wrap;html=1;fillColor=#dae8fc;strokeColor=#6c8ebf;" parent="1" vertex="1">
          <mxGeometry x="370" y="160" width="180" height="45" as="geometry" />
        </mxCell>
        <mxCell id="3JHjnSQ0O0BwTpirnNTk-15" value="Разделить сумму всех выполненых заявок на количество заявок" style="rounded=0;whiteSpace=wrap;html=1;fillColor=#dae8fc;strokeColor=#6c8ebf;" parent="1" vertex="1">
          <mxGeometry x="370" y="320" width="180" height="45" as="geometry" />
        </mxCell>
        <mxCell id="3JHjnSQ0O0BwTpirnNTk-16" value="Вывод среднего времени выполненой заявки" style="shape=parallelogram;perimeter=parallelogramPerimeter;whiteSpace=wrap;html=1;fixedSize=1;fillColor=#ffe6cc;strokeColor=#d79b00;" parent="1" vertex="1">
          <mxGeometry x="375" y="390" width="170" height="45" as="geometry" />
        </mxCell>
        <mxCell id="3JHjnSQ0O0BwTpirnNTk-17" value="" style="endArrow=classic;html=1;rounded=0;" parent="1" source="3JHjnSQ0O0BwTpirnNTk-1" target="3JHjnSQ0O0BwTpirnNTk-13" edge="1">
          <mxGeometry width="50" height="50" relative="1" as="geometry">
            <mxPoint x="390" y="200" as="sourcePoint" />
            <mxPoint x="440" y="150" as="targetPoint" />
          </mxGeometry>
        </mxCell>
        <mxCell id="3JHjnSQ0O0BwTpirnNTk-18" value="" style="endArrow=classic;html=1;rounded=0;" parent="1" source="3JHjnSQ0O0BwTpirnNTk-13" target="Tu_4szi0xICmWbyrifbd-3" edge="1">
          <mxGeometry width="50" height="50" relative="1" as="geometry">
            <mxPoint x="470" y="180" as="sourcePoint" />
            <mxPoint x="470" y="200" as="targetPoint" />
          </mxGeometry>
        </mxCell>
        <mxCell id="3JHjnSQ0O0BwTpirnNTk-20" value="" style="endArrow=classic;html=1;rounded=0;" parent="1" source="3JHjnSQ0O0BwTpirnNTk-15" target="3JHjnSQ0O0BwTpirnNTk-16" edge="1">
          <mxGeometry width="50" height="50" relative="1" as="geometry">
            <mxPoint x="460" y="375" as="sourcePoint" />
            <mxPoint x="380" y="320" as="targetPoint" />
          </mxGeometry>
        </mxCell>
        <mxCell id="3JHjnSQ0O0BwTpirnNTk-21" value="" style="endArrow=classic;html=1;rounded=0;entryX=0.5;entryY=1;entryDx=0;entryDy=0;" parent="1" source="3JHjnSQ0O0BwTpirnNTk-14" target="Tu_4szi0xICmWbyrifbd-4" edge="1">
          <mxGeometry width="50" height="50" relative="1" as="geometry">
            <mxPoint x="465" y="205" as="sourcePoint" />
            <mxPoint x="465" y="220" as="targetPoint" />
          </mxGeometry>
        </mxCell>
        <mxCell id="3JHjnSQ0O0BwTpirnNTk-22" value="" style="endArrow=classic;html=1;rounded=0;" parent="1" source="Tu_4szi0xICmWbyrifbd-4" target="3JHjnSQ0O0BwTpirnNTk-15" edge="1">
          <mxGeometry width="50" height="50" relative="1" as="geometry">
            <mxPoint x="550" y="290" as="sourcePoint" />
            <mxPoint x="504" y="130" as="targetPoint" />
          </mxGeometry>
        </mxCell>
        <mxCell id="3JHjnSQ0O0BwTpirnNTk-23" value="" style="endArrow=classic;html=1;rounded=0;" parent="1" source="3JHjnSQ0O0BwTpirnNTk-16" target="3JHjnSQ0O0BwTpirnNTk-2" edge="1">
          <mxGeometry width="50" height="50" relative="1" as="geometry">
            <mxPoint x="470" y="505" as="sourcePoint" />
            <mxPoint x="470" y="520" as="targetPoint" />
          </mxGeometry>
        </mxCell>
        <mxCell id="Tu_4szi0xICmWbyrifbd-3" value="Расчет среднего времени выполнения заявок" style="shape=loopLimit;whiteSpace=wrap;html=1;fillColor=#d5e8d4;strokeColor=#82b366;" vertex="1" parent="1">
          <mxGeometry x="392.5" y="20" width="135" height="40" as="geometry" />
        </mxCell>
        <mxCell id="Tu_4szi0xICmWbyrifbd-4" value="Расчет среднего времени выполнения заявок" style="shape=loopLimit;whiteSpace=wrap;html=1;fillColor=#d5e8d4;strokeColor=#82b366;rotation=0;horizontal=1;verticalAlign=middle;direction=west;" vertex="1" parent="1">
          <mxGeometry x="392.5" y="250" width="135" height="40" as="geometry" />
        </mxCell>
        <mxCell id="Tu_4szi0xICmWbyrifbd-5" value="" style="endArrow=classic;html=1;rounded=0;" edge="1" parent="1" source="Tu_4szi0xICmWbyrifbd-3" target="3JHjnSQ0O0BwTpirnNTk-11">
          <mxGeometry width="50" height="50" relative="1" as="geometry">
            <mxPoint x="460" y="30" as="sourcePoint" />
            <mxPoint x="470" y="30" as="targetPoint" />
          </mxGeometry>
        </mxCell>
        <mxCell id="Tu_4szi0xICmWbyrifbd-8" value="" style="endArrow=classic;html=1;rounded=0;" edge="1" parent="1" source="3JHjnSQ0O0BwTpirnNTk-11" target="3JHjnSQ0O0BwTpirnNTk-14">
          <mxGeometry width="50" height="50" relative="1" as="geometry">
            <mxPoint x="470" y="70" as="sourcePoint" />
            <mxPoint x="470" y="100" as="targetPoint" />
          </mxGeometry>
        </mxCell>
      </root>
    </mxGraphModel>
  </diagram>
</mxfile>
